<svg xmlns="http://www.w3.org/2000/svg" xml:space="preserve" width="2048" height="2048" style="shape-rendering:geometricPrecision;text-rendering:geometricPrecision;image-rendering:optimizeQuality;fill-rule:evenodd;clip-rule:evenodd"><defs><style>.fil2,.fil3{fill:#fffffe}.fil3{fill-rule:nonzero}</style></defs><g id="Layer_x0020_1"><path style="fill:none" d="M0-.881h2048v2048H0z"/><rect width="2048" height="2048" rx="256.001" ry="256.001" style="fill:#03a9f4"/><path class="fil2" d="m1652.59 1341 76.71 99.02-53.06 36.64-75.23-98.05-75.98 98.26-52.18-36.85 77.21-99.7-127.47-31.5 18.1-61.9 128.33 32.82v-128.22h64.14v128.25l128.24-32.44 17.02 62.23zM498.524 1340.9l76.71 99.02-53.056 36.65-75.236-98.06-75.98 98.26-52.174-36.85 77.213-99.69-127.477-31.5 18.099-61.9 128.332 32.81v-128.22h64.142v128.25l128.238-32.44 17.023 62.23zM1108.25 1340.77l76.7 99.01-53.05 36.65-75.24-98.06-75.977 98.26-52.173-36.85 77.21-99.69-127.474-31.5 18.099-61.9 128.335 32.81v-128.22h64.14v128.25l128.24-32.44 17.02 62.23zM755.034 1661.37l76.711 99.01-53.057 36.65-75.235-98.05-75.98 98.26-52.174-36.86 77.212-99.69-127.476-31.5 18.099-61.9 128.331 32.82v-128.23h64.141v128.26l128.24-32.44 17.023 62.22zM1396.02 1661.37l76.71 99.01-53.06 36.65-75.23-98.05-75.99 98.26-52.17-36.86 77.21-99.69-127.47-31.5 18.1-61.9 128.33 32.82v-128.23h64.14v128.26l128.24-32.44 17.02 62.22z"/><g id="_351029456"><path id="_351031280" class="fil3" d="M1076.92 319.125c70.923 0 136.312 23.47 188.504 62.917a308.76 308.76 0 0 1 6.261 4.863 335.92 335.92 0 0 0-59.414 28.428c-34.702 21.006-65.346 48.183-90.233 80.08a255.375 255.375 0 0 0-11.905-3.95 259.14 259.14 0 0 0-75.533-11.232c-62.966 0-123.482 22.727-170.684 64.43-31.801 28.097-56.05 63.617-70.343 103.334-61.096 4.072-118.787 29.575-162.872 72.7-48.21 47.159-75.516 110.978-75.516 178.575 0 58.22 20.272 113.66 56.76 158.1H475.411c-23.713 0-19.147-.917-41.811-6.186-42.906-9.98-81.143-31.786-110.903-61.704-40.453-40.666-65.366-96.193-65.366-157.406 0-62.334 25.807-118.743 67.523-159.552 41.523-40.616 98.72-65.74 161.75-65.74 2.19 0 4.4.034 6.629.101 11.141-44.576 35.766-83.913 69.389-113.617 40.666-35.93 94.4-57.807 153.194-57.807 23.541 0 46.334 3.532 67.844 10.086a228.95 228.95 0 0 1 33.167 13.006c25.056-38.164 58.608-70.468 98.036-94.335 47.223-28.587 102.752-45.09 162.057-45.09z"/><path id="_351031184" class="fil3" d="M1386.99 398.705c69.21 0 133.022 22.904 183.953 61.398 49.234 37.213 86.44 89.038 104.907 148.906 33.935 25.213 62.044 57.645 81.96 94.99 20.993 39.359 32.862 84.048 32.862 131.37 0 78.474-32.493 149.498-85.026 200.887-44.933 43.954-103.055 79.133-169.641 82.87H800.004c-23.14 0-18.685-.895-40.802-6.038-41.87-9.739-79.184-31.018-108.226-60.213-39.476-39.684-63.787-93.87-63.787-153.606 0-60.828 25.183-115.876 65.892-155.7 40.52-39.635 96.338-64.152 157.845-64.152 2.137 0 4.294.033 6.47.099 10.871-43.5 34.902-81.887 67.712-110.875 39.685-35.062 92.121-56.41 149.496-56.41 22.973 0 45.216 3.446 66.207 9.841a223.429 223.429 0 0 1 32.365 12.693c24.452-37.243 57.193-68.768 95.67-92.058 46.083-27.897 100.27-44.002 158.144-44.002z"/></g></g></svg>