<svg xmlns="http://www.w3.org/2000/svg" xml:space="preserve" width="2048" height="2048" style="shape-rendering:geometricPrecision;text-rendering:geometricPrecision;image-rendering:optimizeQuality;fill-rule:evenodd;clip-rule:evenodd"><defs><style>.fil1{fill:#fffffe;fill-rule:nonzero}</style></defs><g id="Layer_x0020_1"><rect width="2048" height="2048" rx="256.001" ry="256.001" style="fill:#66bb6a"/><path class="fil1" d="M1170.79 669.084c47.213 19.53 89.516 47.992 124.736 83.211 35.26 35.26 63.754 77.599 83.31 124.84 18.79 45.396 29.162 95.002 29.162 146.842 0 51.841-10.372 101.447-29.163 146.844-19.555 47.24-48.05 89.58-83.309 124.84-35.22 35.218-77.523 63.68-124.736 83.21-45.373 18.768-94.962 29.129-146.792 29.129-51.832 0-101.42-10.361-146.793-29.129-47.213-19.53-89.518-47.993-124.736-83.21-35.258-35.26-63.754-77.6-83.31-124.84-18.79-45.397-29.162-95.003-29.162-146.844 0-106.139 42.983-202.193 112.472-271.682 35.218-35.218 77.523-63.68 124.736-83.211 45.374-18.768 94.962-29.128 146.793-29.128 51.83 0 101.42 10.36 146.792 29.128zM570.182 1058.91H256.001v-69.818h314.181zM1058.91 1477.82V1792h-69.818v-314.18zM727.789 1369.58l-222.16 222.16-49.37-49.37 222.16-222.16zM678.415 727.789l-222.16-222.16 49.371-49.37 222.159 222.16zM1792 1058.91h-314.18v-69.821H1792zM1058.91 255.998V570.18h-69.821V255.998zM1591.74 505.624l-222.16 222.161-49.37-49.37 222.16-222.161zM1542.38 1591.74l-222.17-222.16 49.37-49.37 222.17 222.16z"/></g></svg>